<svg xmlns="http://www.w3.org/2000/svg" viewBox="0 0 48 48">
  <path fill="#E02020" fill-rule="nonzero" d="M12 46.4h1.8l.5-.3.4-.4.2-.5.2-.5a20.3 20.3 0 00.5-2.1v-.7c.2-.2.2-.5.2-1V37.5l.1-.6v-2.6l-.1-1.8a4 4 0 01-.2-1.4v-.7-.7l2.6-.1H23l.6.1c.3 0 .4.1.6.3l.2.6.1.6.2.5.5 1.8.2.5.2.5.1.4.2.5.2.6.2.5.3.5.2.5.3.5v.3c0 .2.1.4.3.5l.1.6.2.6.2.2.1.6.3.5.2.5.2.6.2.2.2.5.2.5v.3l.3.6.2.5c.2 0 .3.2.5.3 0 .2.1.3.3.4.2 0 .3.1.5.3h.7l6.6.1h1.5l.6-.1.7-.1.6-.2.5-.2.4-.5.2-.5V44a2.8 2.8 0 00-.1-1l-.1-.5-.4-.5-.5-.7a1 1 0 00-.2-.4l-.3-.5V40a3 3 0 00-.4-.4l-.6-.9-.3-.4-.2-.3-.3-.5-.8-1-.3-.5-.3-.5-.3-.4-.3-.4-.1-.3-.3-.4-.3-.4-.3-.6v-.2a3 3 0 00-.5-.4l-.5-.8-.3-.6-.5-.6v-.6H36l.7-.1.6-.2.6-.2c0-.2.1-.3.3-.4v-.7a6.5 6.5 0 000-2.1c0-.2.2-.4.3-.5h1.7a3.9 3.9 0 001.7 0h.3l.5-.3.3-.1.3-.5.1-.6v-1.9l.1-.6.1-3a21 21 0 00-.5-7.2v-.6l-.1-.3-.3-.6-.2-.4a3 3 0 00-.4-.4l-.2-.2-.5-.2h-.7l-.7.1-.2.1h-1.9a1 1 0 01-.6-.2 3 3 0 01-.2-.5l-.1-.6-.1-.7-.1-.6a14.7 14.7 0 01-.2-1.3c0-.2-.1-.4-.3-.5l-.1-.3a4.9 4.9 0 00-.5-.7l-.3-.4-.5-.2-.5-.2-.3-.1h-.7l-.6-.1a5 5 0 00-1.1-.1 5 5 0 00-1-.1h-.8a5 5 0 00-1-.1 4 4 0 01-1.5.1h-1.8a5 5 0 01-1 .2 57.3 57.3 0 01-5.4.1h-.5a2 2 0 00-.6 0l-.7-.1a5 5 0 00-1-.1 5 5 0 00-1-.1 4 4 0 00-1.5-.1 8 8 0 00-1.4-.1l-.7-.1h-1.4l-.7.1-.6.2-.7.2-.3.3-.3.1-.4.3-.3.5A5.2 5.2 0 006.9 5l-.1 1.3v1.1l-.1 1-.1 1.5-.1 1.4v.7l-.2.7V16l-.1 1.8a8 8 0 00-.2 2.1v1.5l-.1 1v1l-.2.7v4L5.6 31V40.6l-.1.6a14.7 14.7 0 00-.3 1.3 6 6 0 00-.2.9l.4.7.2.4.5.7.4.4.6.4.5.3h1l3.4.1zm5.3-24H17l-.7-.1-.3-.1c-.2 0-.3-.2-.5-.3v-.6c-.1-.2-.2-.8-.2-1.8v-.8V12H16.2l1-.1.7-.2h.7l.6-.1H21l1.1-.2h1l1.5-.1h2.9l2.9-.1h1.2a5 5 0 001.7 0l.3-.1.6-.1.5.2.3.6.1.5a8 8 0 010 2.8l-.1.7v5l-.1.7c0 .3-.1.4-.4.4a16 16 0 01-3.2.2 8 8 0 01-1.4 0l-2.2.1-10.7.1h.3z"/>
</svg>