<svg xmlns="http://www.w3.org/2000/svg" viewBox="0 0 670 164">
  <g fill="none" fill-rule="nonzero">
    <path fill="#E02020" d="M13.9 80.4l2.8-.1.8-.4c.3-.2.5-.3.6-.6l.4-.8.3-.8a31.7 31.7 0 00.7-3.3l.1-1a32.9 32.9 0 00.4-5.6v-1.3l.1-1-.1-4-.1-2.8c-.2-.3-.3-1-.3-2.2v-1-1.3h11.5l1 .2c.4 0 .7 0 .9.3l.2 1c.2.2.3.5.3.9l.3.8.7 2.8.4.8.3.9.1.4.4.8.2 1 .4.8.5.7c0 .3.1.6.3.8l.4.8v.5l.4.8.3 1c0 .3.2.6.3.8 0 .2.2.3.2.3l.3 1c.1.2.3.5.3.8l.4.8c0 .3.2.6.3.8l.3.4.3.8.4.8v.5c.2.2.4.5.4.8l.4.8.7.5c0 .3.3.5.6.6l.7.5h1c.3.2 3.8.2 10.4.2h1.2l1-.1 1.1-.1 1.1-.1 1-.3c.1-.1.3-.3.6-.3l.6-.7.4-.9.1-1a4.4 4.4 0 00-.2-1.4l-.3-1-.4-.7-.9-1c0-.3-.2-.6-.3-.7l-.5-.8-.1-.4-.6-.7-1-1.3-.4-.7-.2-.5-.5-.7-1.2-1.6-.4-.7-.5-.8-.5-.6-.4-.7-.3-.5-.4-.7-.5-.6-.5-.8-.1-.3-.6-.7c-.3-.5-.6-1-1-1.3 0-.3-.1-.6-.3-.8l-.8-1.1-.1-.8 2.2-.1c.4 0 .8 0 1-.2l1-.2c.3 0 .6-.2.8-.3l.5-.7.1-1.1a10.2 10.2 0 000-3.3c0-.3.2-.5.5-.7l1-.1 1.7.1a6 6 0 002.6 0l.4-.1c.3 0 .6-.2.8-.4l.4-.2.5-.7.2-1 .1-2.9.1-1c.1-.3.2-1.9.2-4.6a32.9 32.9 0 00-.9-11.2v-1l-.2-.6-.4-.8a3 3 0 01-.3-.7L61 22l-.3-.2-.9-.4-1 .1c-.4 0-.8 0-1 .2h-3.4c-.3 0-.7 0-.9-.2l-.3-.9-.3-1-.1-1a3 3 0 01-.1-1 22.9 22.9 0 01-.4-2L52 15l-.3-.4a7.7 7.7 0 00-.7-1.2l-.5-.5a3 3 0 00-.7-.4c-.3-.2-.5-.3-.9-.3a1 1 0 00-.4-.2h-1c-.4-.2-.8-.2-1.1-.2l-1.7-.1-1.6-.1a6 6 0 01-1.2-.1l-1.6-.2c-.3.2-1 .3-2.3.3h-2.8c-.3.2-.8.2-1.6.2l-1.7.1-6.7.1h-.8a3 3 0 00-.9 0c-.3-.2-.7-.2-1-.2l-1.7-.1-1.6-.1c-.3-.2-1-.3-2.3-.3h-2.2c-.3-.2-.6-.2-1-.2l-1 .1h-1.3l-1 .1a2 2 0 01-1 .3l-1 .2-.6.5c-.2 0-.3.1-.3.2l-.8.5-.4.8a8.1 8.1 0 00-.4 2v2.1c-.2.3-.2.9-.2 1.6l-.1 1.7-.1 2.2c-.1.3-.2 1-.2 2.2v1L5 27.7V30L5 32.8l-.1 2.8c-.2.3-.3 1.5-.3 3.4v2.2c-.2.3-.2.9-.2 1.7l-.1 1.6-.1 1v1.2l-.1 4v1c-.1.4-.2 1.9-.2 4.6v.6c.1.3.2 4 .2 10.8v.8l-.2 1.7v1c-.2.3-.2.7-.2 1a22.9 22.9 0 00-.3 2L3 75.8l.6 1c0 .4.2.6.3.7l.7 1.1.7.6 1 .7.8.3 1.6.2H14zm8.4-37.6h-.6c-.3 0-.7 0-1-.2a1 1 0 01-.5 0l-.8-.5a18.1 18.1 0 01-.2-3.8v-1.2L19 28v-1.2h.4a3 3 0 011-.1l1.6-.1 1-.3h1.1l1-.2h1.2l1.7-.1 1.6-.1 1.7-.2h2.2c.3-.1 1.8-.2 4.6-.2l4.5-.1h1.8a7.8 7.8 0 002.7 0l.4-.1 1-.1c.3 0 .6.2.8.3l.5.8.2 1a12.4 12.4 0 01-.1 4.2l-.1 1.2V40.4c0 .4-.1.8-.3 1 0 .5-.1.7-.4.8h-1.7c-.3.2-1.4.2-3.4.2l-2.2.1-3.4.1c-.2.1-5.8.2-16.8.2h.6z"/>
    <path fill="#0091FF" d="M80.5 80.5l1.1-.1H85l3-.1c.4 0 .7 0 1.1-.2h4.1l1.2-.2h6.5l1.1-.1h5.9a6 6 0 011.2-.1l1.1-.3 1-.4 1-.7c.3-.3.4-.7.6-1l.4-1.1.3-1.2.1-1.2v-1.2l.1-1.1v-1.2c0-.3 0-.7.2-1v-2.4a6 6 0 01-.2-1.2l-.2-1.1c-.1-.4-.3-.8-.6-1.1l-.7-.8c-.3-.3-.6-.6-1-.7-.2-.3-.6-.5-1-.6-.4 0-.8-.2-1.1-.4l-1.1-.2-1.2-.1a6 6 0 00-1.1-.1h-3a6 6 0 00-1.1 0 6 6 0 00-1.2.2h-1.2a6 6 0 01-1.2.1 6 6 0 01-1.1.1 6 6 0 01-1.2.2 6 6 0 00-1.2 0h-1.1a6 6 0 01-1.2.2H91a6 6 0 01-1.2.1H87a6 6 0 01-1.2-.1c-.3-.2-.5-.4-.6-.8v-2.4l-.2-1.1v-2.4c0-.4.3-.7.6-1a6 6 0 011.2 0l.6-.2h4.1c.3 0 .7 0 1.1.2h1.2l1.2.2 1.1.1 1.1.4 1.2.2 1.1.2 1.2.3h1c.5.2 1.2.2 2.4.2h1.2l1.2-.5.9-.6c.3-.2.5-.5.7-.9l.5-1 .2-1.2a22.9 22.9 0 00.4-2.2v-.3-5l-.2-1.2v-1.2a14 14 0 00-.8-1.6l-.6-1-1-.8-.8-.7c-.4 0-.7-.2-1.1-.3a6 6 0 01-1.2-.1l-1.7-.2a6 6 0 00-1.2 0 6 6 0 01-1.2-.2h-1.7a6 6 0 00-1.2.1h-1.2a6 6 0 00-1.1.1 6 6 0 00-1.2.2h-.6a6 6 0 01-1.2 0 6 6 0 01-1.1.2h-1.2a14 14 0 01-1-.5c-.4-.2-.6-.5-.7-1a6 6 0 010-1c.2-.3.5-.5.9-.7l1-.3 1.2-.3a6 6 0 011.2 0h2.9l1.2.3 1.1.1 1.2.2c.4 0 .8 0 1.2.2h3.5a22.9 22.9 0 002.8-.6l1-.6.6-1a14 14 0 00.9-2.2v-1.2l.2-1.1a22.9 22.9 0 00-.5-2.3l-.3-1.1-.6-1-.8-.9-1-.6-1.1-.2a6 6 0 00-1.2-.1 6 6 0 00-1.2-.2h-.6a6 6 0 00-1.1 0h-1.2a52.8 52.8 0 00-5.3 0 6 6 0 00-1.2.2h-2.2a6 6 0 01-1.2.2h-.2a6 6 0 00-1 .1 6 6 0 01-1.1.1 6 6 0 00-1.2.1 6 6 0 00-1.1.2h-1.2a6 6 0 01-1.2 0 6 6 0 01-1.2.2h-.5a6 6 0 01-1.2.1 6 6 0 01-1.2.1 6 6 0 01-1.2.1 6 6 0 01-1.1.2 6 6 0 00-1.2 0 6 6 0 00-1.2.2 6 6 0 01-1.1.1 5 5 0 01-1.2.1l-1 .3c-.5.2-.7.5-.8.8V25a287.2 287.2 0 00-.2 9.3v1.2l.1 25.2V62l-.1 1.1v1.2l-.1 3.5-.1 1.2v1.8l-.2 1.1v3.4c.1.4.2.8.4 1l.7 1.1.7.9 1 .7.9.7 1.1.2 1.2.4h2.4c.3.2 1.7.2 4 .2z"/>
    <path fill="#924CFF" d="M161.2 81.2l1.2-.1 1-.7.7-.8.4-1.1.1-1.2v-7.6A1318.4 1318.4 0 00165 51l.2-.6.1-1.2V48l.1-1.1.1-1.2 14.8-.1h1.5l1-.1H185.3l1.2.2a3.1 3.1 0 002.1-.8c.3-.3.5-.7.6-1V41a998 998 0 000-16.4l-.2-1.2-.7-1-1-.5-1.3-.1h-1l-1.3-.1c-.3 0-.7 0-1-.2-.5 0-.8 0-1.2-.2l-1.2-.2a6 6 0 01-1.2-.1c-.3 0-.6 0-1-.2h-4.3a6 6 0 01-1.1 0 6 6 0 00-1.2-.2h-1a6 6 0 00-1.2-.1h-1.8a2 2 0 00-.6-.1 6 6 0 01-1.1-.1 6 6 0 00-1.2 0 6 6 0 01-1.2.2h-1.7a6 6 0 01-1.2.1h-.6a6 6 0 00-1.2.1h-1.1l-3 .1h-1.1a6 6 0 01-1.2.2h-1.8a6 6 0 01-1.2-.2 6 6 0 00-1.1.2H129.3c-2.5.2-5 .2-7.6.2h-1.2c-.4 0-.7.2-1 .5l-.5 1 .1.6.2 1.2v1.1l-.2 13v1.1l.3 1.2.6 1 1 .6 1 .3H123.9a6 6 0 011.2 0h2.9l1.2.2a6 6 0 011.2-.1h2.9l1.2.2h1.1l1.2.2 1.2.2h1.2a6 6 0 011.1 0l1 .3.7 1 .2.5.4 1.2v.5l.5 2.3.2 1.2v1.2l.2 1.1v2.3l.1 1.3V62l.1 1.2V65l.1 1.2v1.2l.2 1.2v2.1l.3 1.3.1 1.1.3 1.2V76.2l.2 1.1.5 1 .9.8 1 .3 1.3.2h1.2a22.9 22.9 0 002.2.4l1.2.1 1.2.2 1.2.2c.4 0 .7 0 1 .2l1.2.3h2.3c.4.2.8.2 1.2.2z"/>
    <path fill="#6DD400" d="M203 80.8c.2-.1 1.2-.2 2.7-.2l.9-.3.5-.6.4-.8.3-.9a18.5 18.5 0 001-4.3l.1-1.6.1-4v-1.2l.1-1v-4c-.2-.4-.2-1.3-.2-2.9l-.1-2.2c0-.4-.1-.7-.3-1 0-.4 0-.8.2-1 .3-.2 1.6-.2 4-.2a103.6 103.6 0 008.5.2c.4 0 .7.1.8.4l.3.8.2 1c.1.2.3.4.3.8l.7 2.8.4.8c.2.2.3.5.3.8 0 .2 0 .3.2.5l.3.8.3 1 .3.8.5.8.3.7.4.8v.5l.4.8.3 1 .3.7.3.5.2.8.4.9.3.8c0 .3.2.6.4.8 0 .2.1.3.2.3l.3.9.4.8.1.5.4.8.3.8.7.6c0 .2.3.4.6.5l.7.4 1 .1a236.1 236.1 0 0013.8 0c.3-.2.6-.2 1-.2l1-.2c.1-.2.4-.3.7-.4l.6-.7.3-.7.1-1-.1-1.1-.1-.5-.2-.9-.5-.7-.8-1-.4-.8-.5-.8v-.3l-.5-.7-1.1-1.3-.5-.7-.2-.4c0-.3-.2-.6-.5-.8l-1.1-1.6-.5-.7c-.2-.4-.3-.6-.5-.7l-.4-.8-.5-.7-.3-.3c0-.3-.2-.6-.4-.8l-.5-.6-.5-.8v-.4l-.5-.7-1.1-1.3c0-.3-.2-.6-.3-.8l-.9-1v-.8h2.1a4.4 4.4 0 002-.5l.9-.4.4-.6.1-1c.1-.3.2-1 .2-2.3v-1c0-.4 0-.7.3-.8.4 0 .7 0 1-.2l1.7.2a7.8 7.8 0 002.6 0c.1 0 .3 0 .4-.2.4 0 .6-.1.9-.3l.3-.2.6-.7.1-1.1.1-2.8.2-1v-4.5a32.9 32.9 0 00-.7-11.4c0-.4 0-.7-.2-1v-.5c-.2-.2-.4-.5-.4-.8a3 3 0 00-.4-.7c-.1-.3-.3-.5-.6-.7l-.3-.3-.8-.3-1.1.1a3 3 0 00-1 .1 1 1 0 01-.4.1h-3c-.3 0-.6 0-.9-.2l-.3-1-.3-.8v-1c-.2-.3-.2-.7-.2-1l-.2-1-.1-1-.4-.9-.2-.3-.5-.9-.2-.2-.6-.7c-.2-.1-.4-.3-.7-.3l-.8-.4a1 1 0 01-.5-.1l-1-.1-1.1-.1-1.7-.2h-1.6a6 6 0 01-1.2-.2h-1.6l-2.2.1-2.8.1-1.7.2H221a97.2 97.2 0 01-18.3-.6h-1a6 6 0 01-1.2 0c-.4.2-.7.2-1 .2l-1 .2-1 .2-.7.4-.3.3-.7.5-.5.7a8.1 8.1 0 00-.3 2c-.1.4-.2 1-.2 2.3v1.6c-.2.3-.2.9-.2 1.6l-.1 2.2-.1 2.2c0 .4 0 .7-.2 1v3.4c-.1.3-.2 1.3-.2 2.8L194 36l-.1 3.4c-.2.3-.3 1-.3 2.2v1.6l-.2 1.7-.1 1v1.2l-.1 4v1l-.1 5.3v13.2l-.2 1v1a22.9 22.9 0 00-.4 2L192 76l.6 1c0 .4.2.7.4 1l.8.9a12.3 12.3 0 002.3 1.6l1.7.1c.3.2 2 .2 5.1.2zm9.8-37.7h-2l-1-.1a1 1 0 01-.6-.1l-.8-.4v-1c-.2-.3-.2-1.3-.2-2.8v-1.2l-.1-10.4h.4l1.1-.2a6 6 0 011.5 0c.4-.2.8-.2 1-.2l1.1-.1 1-.1 1.3-.1 1.6-.2h1.6c.4-.2.9-.2 1.7-.2l2.2-.1 4.6-.1c.3-.1 2-.2 5.1-.2h1.2a7.8 7.8 0 003.2 0h1c.3 0 .6 0 .7.2.3.2.4.5.5.8l.2 1a12.4 12.4 0 010 4.3v.2l-.2.8V37l.1 1-.1 1.1v1.7l-.1 1c-.1.4-.3.6-.6.7l-1.6.1c-.4.1-1.5.2-3.4.2h-2.3c-.2.2-1.3.2-3.3.2l-14.8.1z"/>
    <path fill="#FA6400" d="M312.3 80.5l1.1-.1 1.2-.3.8-.8c.3-.2.5-.5.6-1a14.7 14.7 0 000-3.4v-4.1c.3-.2.7-.3 1-.3a35.3 35.3 0 014.1-.2l1-.7.8-.7 1-.8.8-.7.2-1 .1-33.5v-1.2a14 14 0 00-1-2 16 16 0 00-.6-1.1c-.2-.3-.4-.4-.8-.5h-1.2a74 74 0 00-5.3-.3 22.9 22.9 0 01-.6-3.4l-.2-1.2a1 1 0 01-.1-.5l-.6-1-.7-1-1-.6-1.1-.3h-1.2a6 6 0 01-1.2.1 6 6 0 00-1.1.1h-4.7a6 6 0 00-1.2.1h-4a6 6 0 01-1.3.2 6 6 0 00-1.1 0h-4.7a6 6 0 00-1.2.2h-5.9a6 6 0 00-1.1.1h-4.7l-1 .1-1.4.1h-.4l-1.3.2h-1a6 6 0 01-1.2 0h-1.3l-1 .4-1.1.5-1.2.4-1 .4c-.4.2-.6.4-.8.7v4.2c-.4 0-.7.2-1.1.3h-1.2a52.8 52.8 0 01-4.7.2l-.7 1-.6.9-.6 1v37c.2.5.4.8.7 1 .3.3.5.6.9.8l1 .4h1.2l4.2.1c.3 0 .5.2.6.6v1.9l.1 1 .1 1.2.1 1.2.5 1.1.5 1c.1.4.4.7.7 1l1 .4h1.2a6 6 0 011.2 0h3.5a6 6 0 011.2-.1h2.3c.4 0 .8 0 1.2-.2h8.2c.4 0 .8 0 1.2.2h1c.4.2.8.2 1.2.2l1.1.2 1.2.1c.4 0 .8 0 1.2.2h3.5c4.9.2 9.7.2 14.7.2zm-9-18H301a6 6 0 00-1.2-.2h-14a21 21 0 00-3-.2 6 6 0 01-1.1-.1h-1.2l-4.7-.1-.1-1.1-.1-15.8.1-5 .1-1v-3l1.2-.3h1.2l4.6-.2h1.2l8.7-.1h1.3l9.4-.1c.3.1.4.3.4.7l.1 1.1.3 14.7V53l-.1 8.7c-.1.4-.4.6-.7.7z"/>
    <path fill="#D9EFF9" d="M79 157v-14.6H29c-1.8 0-3.2-.4-4-1a3.3 3.3 0 01-1.3-2.7l-.2-4.8v-14.3l.2-5c0-1 .5-1.7 1.3-2.3a7 7 0 014-1h50V96.5H27c-6.7 0-11.7 1.4-14.9 4.2-3.2 2.8-4.8 7-4.8 12.6v27c0 5.5 1.6 9.6 4.8 12.5 3.2 2.8 8.2 4.2 14.9 4.2h52zm62 .4a90 90 0 009.3-.7c2.5-.3 4.5-.8 6.2-1.5 1.7-.7 3.2-1.7 4.5-3 1.6-1.4 2.6-2.9 3.2-4.6.5-1.7.8-3.8.8-6.2v-29.5c0-2.5-.3-4.5-.8-6.1a11 11 0 00-3.2-4.5 14.7 14.7 0 00-4.4-3.1c-1.6-.7-3.7-1.3-6-1.6a88 88 0 00-9-.5 811 811 0 00-41.3.5c-2.5.3-4.6.9-6.2 1.6-1.6.7-3.1 1.7-4.5 3a11 11 0 00-3.1 4.6c-.6 1.6-.9 3.6-.9 6v29.6c0 2.4.3 4.5.9 6.2.5 1.7 1.6 3.2 3.1 4.6a16 16 0 004.5 3c1.6.7 3.7 1.2 6.2 1.5 2.5.4 5.5.6 9.1.7l14.4.1h2.8l14.5-.1zm1.5-15h-34.3c-2.2 0-3.6-.3-4.4-.8-.8-.4-1.1-1.3-1.1-2.6v-24.5c0-1.1.4-2 1.2-2.7.9-.7 2.3-1 4.3-1h34.5c2.1 0 3.6.3 4.4.8.8.5 1.2 1.5 1.2 2.9V139c0 1-.5 1.8-1.4 2.4a8 8 0 01-4.4 1zm46.7 14.6v-44h.2l22.4 44h12.7l22-44h.3v44h17.5V96.5h-29.4L218 132l-.3-.4-16.7-35.2h-29.5V157h17.6zm99.4 0v-45.4h28.1c1.8 0 3.4.6 4.9 1.8a5.9 5.9 0 012.3 4.3c0 2.1-.8 3.8-2.3 5a8.2 8.2 0 01-5.1 1.7h-25.3l14.9 13.3h16c7 0 11.8-1.8 14.7-5.5 3-3.6 4.4-9.2 4.4-16.9 0-3.7-.4-6.7-1.3-9.1-.9-2.4-2.2-4.3-4-5.8a17.2 17.2 0 00-7-3c-2.8-.6-6.4-1-10.6-1h-48.6V157h19zm113.5.4a90 90 0 009.2-.7c2.5-.3 4.6-.8 6.2-1.5 1.7-.7 3.2-1.7 4.5-3 1.6-1.4 2.6-2.9 3.2-4.6.6-1.7.9-3.8.9-6.2v-29.5c0-2.5-.3-4.5-.9-6.1a11 11 0 00-3.2-4.5 14.7 14.7 0 00-4.4-3.1c-1.6-.7-3.6-1.3-6-1.6a88 88 0 00-9-.5 811 811 0 00-41.3.5c-2.5.3-4.5.9-6.2 1.6-1.6.7-3.1 1.7-4.4 3a11 11 0 00-3.2 4.6c-.6 1.6-.8 3.6-.8 6v29.6c0 2.4.2 4.5.8 6.2.6 1.7 1.6 3.2 3.2 4.6a16 16 0 004.4 3c1.6.7 3.7 1.2 6.2 1.5 2.5.4 5.6.6 9.2.7l14.4.1h2.7l14.5-.1zm1.4-15h-34.3c-2.1 0-3.6-.3-4.4-.8-.7-.4-1.1-1.3-1.1-2.6v-24.5c0-1.1.4-2 1.3-2.7.8-.7 2.2-1 4.2-1h34.5c2.2 0 3.7.3 4.4.8.8.5 1.2 1.5 1.2 2.9V139c0 1-.4 1.8-1.4 2.4a8 8 0 01-4.4 1zM489 157c6.4 0 11-1.5 14-4.4 2.8-3 4.3-7.6 4.3-14.2a25 25 0 00-2.5-11.7c-2.2-3.8-6.2-5.8-11.8-6.1a87.8 87.8 0 00-10.2-.6 1568.3 1568.3 0 00-20.9-.7h-3.1c-2.5 0-4.4-.3-5.8-1-1.4-.6-2-1.9-2-3.8 0-1 .1-2 .6-2.6a4 4 0 011.7-1.5c.7-.4 1.5-.6 2.3-.7l2.8-.1H505V96.5h-56.8c-5.6 0-9.6 1.5-12 4.7-2.4 3.1-3.6 7.8-3.6 14 0 5.1.8 9 2.6 11.5 2.5 3.5 6.5 5.4 12.2 5.7a98.8 98.8 0 009.2.5 2844.8 2844.8 0 0025.6.9c1.1 0 2.2.3 3.2.6s1.9.9 2.5 1.6c.6.8 1 1.8 1 3 0 1-.3 2-.7 2.6-.5.7-1.1 1.2-1.9 1.5-.7.3-1.6.6-2.5.7l-3 .1h-46.6V157H489zm90.5 0v-14H532v-10.1h44.6v-12.2H532v-10.2h47.5v-14h-66.4V157h66.4zm25.5 0v-45.4h30c1.8 0 3.4.5 4.8 1.7s2 2.6 2 4.4c0 2-.6 3.6-2 4.7a8.1 8.1 0 01-5 1.6h-27.2l36.4 33h21l-24.7-21.5v-.3c3.6 0 6.6-.4 9-1 2.3-.8 4.2-2 5.7-3.5a14 14 0 003.1-6 37 37 0 00-.2-18.5c-.9-2.4-2.2-4.3-4-5.8a16.9 16.9 0 00-7-3 51 51 0 00-10.6-1h-50.2V157H605z"/>
  </g>
</svg>