<svg xmlns="http://www.w3.org/2000/svg" viewBox="0 0 670 127">
  <g fill="none">
    <path fill="#D9EFF9" d="M77.7 120.5v-14.8h-50c-1.8 0-3.2-.3-4-1a3.3 3.3 0 01-1.3-2.7l-.2-4.8V82.8l.2-5c0-1 .4-1.7 1.3-2.4a7 7 0 014-.9h50v-15h-52c-6.7 0-11.7 1.5-15 4.3-3.1 2.8-4.7 7-4.7 12.6v27.2c0 5.6 1.6 9.8 4.8 12.6 3.2 2.8 8.2 4.3 14.8 4.3h52.1zm62.1.3c3.7 0 6.7-.3 9.2-.6a25 25 0 006.3-1.6 16 16 0 004.5-3 10 10 0 003.1-4.6c.6-1.7.9-3.8.9-6.3V75a19 19 0 00-.9-6.1 11 11 0 00-3.1-4.6 14.7 14.7 0 00-4.5-3c-1.6-.8-3.6-1.3-6-1.6-2.5-.3-5.4-.5-9-.6a806.7 806.7 0 00-41.3.6c-2.5.3-4.5.8-6.2 1.5-1.6.8-3.1 1.8-4.4 3.1a11 11 0 00-3.2 4.6 19 19 0 00-.9 6.1v29.7c0 2.5.3 4.6.9 6.3a11 11 0 003.2 4.7 16 16 0 004.4 3c1.6.6 3.7 1.2 6.2 1.5 2.5.3 5.6.5 9.2.6l14.4.2h2.7c6.3 0 11.1 0 14.5-.2zm1.4-15H107a9 9 0 01-4.4-.8c-.7-.5-1.1-1.4-1.1-2.7V77.7c0-1.2.4-2 1.2-2.7.9-.7 2.3-1 4.3-1h34.5c2.2 0 3.7.2 4.5.7.8.5 1.2 1.5 1.2 3v24.6c0 1-.5 1.8-1.5 2.5a8 8 0 01-4.4 1zm46.8 14.7V76h.2l22.3 44.4h12.8l22-44.4h.3v44.4H263v-61h-29.4l-16.8 35.8-.3-.3L200 59.5h-29.5v61H188zm99.4 0V74.8h28.1c1.8 0 3.5.6 4.9 1.8a6 6 0 012.3 4.3c0 2.2-.7 3.8-2.2 5a8.2 8.2 0 01-5.2 1.7H290l15 13.4h15.9c7 0 11.9-1.8 14.8-5.5 2.9-3.6 4.3-9.3 4.3-17 0-3.7-.4-6.8-1.3-9.2-.8-2.4-2.2-4.3-4-5.8a17.2 17.2 0 00-7-3c-2.8-.6-6.3-1-10.5-1h-48.6v61h18.8zm113.6.3c3.6 0 6.7-.3 9.2-.6a25 25 0 006.2-1.6c1.7-.7 3.2-1.7 4.5-3 1.6-1.3 2.6-2.9 3.2-4.6.6-1.7.8-3.8.8-6.3V75a19 19 0 00-.8-6.1 11 11 0 00-3.2-4.6 14.7 14.7 0 00-4.4-3c-1.6-.8-3.6-1.3-6-1.6-2.5-.3-5.5-.5-9-.6a806.7 806.7 0 00-41.3.6c-2.5.3-4.6.8-6.2 1.5-1.7.8-3.1 1.8-4.5 3.1a11 11 0 00-3.1 4.6 19 19 0 00-.9 6.1v29.7c0 2.5.3 4.6.9 6.3.5 1.7 1.6 3.3 3.1 4.7a16 16 0 004.5 3c1.6.6 3.6 1.2 6.2 1.5 2.5.3 5.5.5 9.1.6l14.5.2h2.7c6.2 0 11 0 14.5-.2zm1.4-15H368c-2.2 0-3.6-.3-4.4-.8-.8-.5-1.2-1.4-1.2-2.7V77.7c0-1.2.5-2 1.3-2.7.9-.7 2.3-1 4.3-1h34.5c2.2 0 3.6.2 4.4.7.8.5 1.2 1.5 1.2 3v24.6c0 1-.4 1.8-1.4 2.5a8 8 0 01-4.4 1zm85.5 14.7c6.4 0 11-1.5 14-4.5 2.9-2.9 4.3-7.7 4.3-14.2 0-4.7-.8-8.6-2.4-11.8-2.3-3.8-6.3-5.9-12-6.2a87.4 87.4 0 00-10-.5 1559.9 1559.9 0 00-21-.8h-3.1c-2.5 0-4.4-.3-5.8-1-1.4-.6-2-1.9-2-3.8 0-1.1.1-2 .6-2.7a5 5 0 011.7-1.5c.7-.3 1.5-.5 2.3-.6l2.8-.2H504V59.5h-56.8c-5.6 0-9.6 1.6-12 4.8-2.4 3.1-3.6 7.8-3.6 14.2 0 5 .8 9 2.6 11.5 2.5 3.5 6.5 5.3 12.2 5.7a98.2 98.2 0 009.2.5 2829.4 2829.4 0 0025.6.9c1.1 0 2.2.3 3.2.6s1.9.9 2.5 1.6c.7.8 1 1.8 1 3 0 1.1-.2 2-.7 2.7-.5.6-1 1.1-1.9 1.5-.7.3-1.6.5-2.5.6l-3 .2h-46.6v13.2h54.7zm90.6 0v-14.2H531V96.2h44.6V83.9H531V73.6h47.5v-14H512v60.9h66.4zm25.5 0V74.7h30c1.8 0 3.4.6 4.8 1.8 1.4 1.1 2 2.6 2 4.4 0 2.1-.6 3.7-2 4.8a8 8 0 01-5 1.6h-27.2l36.4 33.2h21l-24.7-21.7v-.3c3.6 0 6.6-.3 9-1 2.3-.8 4.2-2 5.7-3.5 1.4-1.5 2.5-3.6 3.1-6a37.4 37.4 0 00-.2-18.7c-.9-2.4-2.2-4.3-4-5.8a16.8 16.8 0 00-7-3c-2.8-.6-6.3-1-10.6-1h-50.2v61H604z"/>
    <path fill="#E02020" d="M464 50.4h1.8l.5-.3.4-.4.2-.5.2-.5a20.3 20.3 0 00.5-2.1v-.7c.2-.2.2-.5.2-1v-3.4l.1-.6v-2.6l-.1-1.8a4 4 0 01-.2-1.4v-1.4l2.6-.1h4.8l.6.1c.3 0 .5.1.6.3l.2.6.1.6.2.5a334481611300339 334481611300339 0 001 3.1l.2.6.2.6.2.5.3.5.2.5.3.5v.3c0 .2.2.4.3.5l.1.6.2.6.2.2.1.6.3.5.2.5.2.6.2.2.2.5.2.5v.3l.3.6.2.5c.2 0 .3.2.5.3 0 .2.2.3.4.4l.4.3h.7l6.6.1h1.5l.7-.1.6-.1.6-.2.5-.2.4-.5.2-.5V48a2.8 2.8 0 00-.1-1l-.1-.5-.3-.5-.6-.7a1 1 0 00-.2-.4l-.3-.5V44a3 3 0 00-.4-.4l-.6-.9-.3-.4-.2-.3-.3-.5-.7-1-.3-.5-.3-.5-.3-.4-.3-.4-.2-.3-.3-.4-.3-.4-.3-.5v-.3a3 3 0 00-.4-.4l-.6-.8-.3-.6-.5-.7v-.5h1.4l.6-.1.6-.2.6-.2c0-.2.2-.3.3-.5v-.6a6.5 6.5 0 000-2.1c0-.2.2-.4.3-.5h1.7a3.9 3.9 0 001.7 0h.3l.5-.3.3-.1.3-.5.1-.7v-1.8l.2-.6v-3a21 21 0 00-.5-7.2v-.6l-.1-.3-.3-.6-.2-.4a3 3 0 00-.4-.5l-.2-.1-.5-.2h-.7l-.7.1-.2.1h-1.9a1 1 0 01-.6-.2 3 3 0 01-.2-.6l-.1-.6-.1-.6-.1-.6a14.7 14.7 0 01-.2-1.3l-.2-.5-.2-.3a4.9 4.9 0 00-.4-.7l-.4-.4-.5-.2-.5-.2-.3-.1h-.7l-.6-.2a5 5 0 00-1.1 0 5 5 0 00-1-.1h-.8a5 5 0 00-1-.2 4 4 0 01-1.5.2h-1.8a5 5 0 01-1 .1 57.3 57.3 0 01-5.4.1l-.5.1a2 2 0 00-.6 0l-.6-.2a5 5 0 00-1.1 0 5 5 0 00-1-.1 4 4 0 00-1.5-.2 8 8 0 00-1.4 0l-.7-.1h-1.4l-.7.1-.6.2-.6.1-.4.3-.2.2-.5.3-.3.5a5.2 5.2 0 00-.2 1.3l-.1 1.3v1.1l-.1 1-.1 1.5-.1 1.4v.7l-.1.6v1.5l-.1 1.8-.1 1.8a8 8 0 00-.1 2.2l-.1 1.4-.1 1.1v1l-.1.7v.8l-.1 2.5v.7l-.1 2.9v9.5l-.1.7a14.7 14.7 0 00-.3 1.3 6 6 0 00-.2.9l.4.7.2.4.5.7.4.4.6.4.5.2 1 .1 3.4.1zm5.3-24h-.3l-.7-.1-.3-.1c-.2 0-.4-.2-.5-.3v-.6l-.1-1.8v-.8l-.1-5.9V16h.9l1-.1.7-.2h.7l.7-.1h1.7l1.1-.2h1l1.5-.1h2.9l2.9-.1h1.2a5 5 0 001.7 0l.3-.1.6-.1.5.2.3.6.2.5a8 8 0 01-.1 2.8l-.1.7v5l-.1.7c0 .3-.1.4-.3.5a16 16 0 01-3.2.2 8 8 0 01-1.5 0h-2.2l-10.7.1h.3z"/>
    <path fill="#0091FF" d="M506.6 50.5l.7-.1h4.1l.7-.1h.8l.7-.1h1.1l.8-.1h8.6l.8-.1.7-.2.7-.3.6-.5.4-.5.2-.8.2-.8.1-.7V44l.2-.6v-1.5l-.1-.8-.2-.7a3 3 0 00-.3-.7l-.5-.5-.6-.5a3 3 0 00-.7-.4c-.2 0-.5 0-.7-.2l-.7-.1-.7-.1h-4.9l-.8.2h-.7l-.8.1h-1.5l-.7.2H510a.7.7 0 01-.4-.6l-.1-.7V34c0-.3.1-.5.3-.6l.8-.1h.3l.8-.1h1.9l.7.1h.8l.7.2h.8l.6.3.8.1.7.2.8.1h.7c.2.1.7.2 1.5.2h.7l.8-.3.6-.4.4-.6.3-.7.2-.7a14.7 14.7 0 00.2-1.5V27l-.1-.8v-.7a9 9 0 00-.5-1.1 4 4 0 00-.4-.6l-.6-.5-.6-.5-.7-.2h-.7l-1.1-.1-.8-.1-.7-.1H516l-.7.2h-1.1l-.8.1h-1.5a9 9 0 01-.7-.2 1 1 0 01-.3-.6l-.1-.8.6-.3.7-.3.7-.1.8-.1h1.8l.8.2.7.1.8.2h.7l.8.1h1.5a14.7 14.7 0 001.8-.4l.6-.4.4-.6a9 9 0 00.6-1.4v-1l.1-.7a14.7 14.7 0 00-.3-1.5l-.2-.7a5.6 5.6 0 00-.9-1.2 4 4 0 01-.6-.4l-.8-.1-.7-.1-.8-.1h-1.8a33.8 33.8 0 00-3.4 0h-.8l-.6.2h-1.7l-.6.1h-.7l-.8.2H508l-.7.1H506l-.7.2h-.8l-.7.1h-.8l-.7.2h-.8l-.7.1h-.8l-.6.2c-.3.2-.4.4-.5.6v.7a183.8 183.8 0 00-.1 6V40l-.1 2.3-.1.7v4.1c0 .2 0 .5.2.7l.4.6.5.6.6.4.6.5.7.1.8.2.7.1h3.5z"/>
    <path fill="#924CFF" d="M558.3 51l.7-.1.6-.5.5-.5.2-.7.1-.8v-4.8a843.8 843.8 0 00.3-12l.1-.4v-1.5l.2-.7v-.8h10.5l.6-.1h1.5l.8.1a2 2 0 001.3-.5c.2-.2.4-.4.4-.6v-1.9a638.7 638.7 0 000-10.5l-.1-.7-.5-.6a4 4 0 00-.6-.4l-.8-.1h-1.5l-.7-.1a2 2 0 01-.7-.2 2 2 0 00-.8-.1l-.7-.1-.7-.1h-3.5l-.7-.1h-.7l-.7-.1h-1.2l-.3-.1h-3.4l-.8.2H556l-2 .1h-5.5l-9.8.2h-6.4l-.6.3a9 9 0 00-.3.7v.4l.1.7v10.5l.5.6.6.5.7.1h.4l.7.1h6l.8.2h.7l.8.1h.7l.8.2.7-.1.7.2.4.6.1.4.3.7v.3l.3 1.5.1.8v.7l.2.8v5.9l.1.8v2.7l.2.7v1.4l.2.8v.7l.2.8v1.1l.2.8.3.6.6.5.6.2h.9l.7.2a14.7 14.7 0 001.4.2h.8l.7.1.8.2.7.1.7.2h1.5l.8.1z"/>
    <path fill="#6DD400" d="M585 50.7c.2-.1.8-.2 1.8-.2.2 0 .3 0 .5-.2l.4-.3.2-.6.2-.5a11.9 11.9 0 00.6-2.8v-1c.1-.2.2-1 .2-2.6v-4l-.1-1.8-.1-1.4-.1-.6V34l2.6-.1a66.3 66.3 0 005.4.2c.3 0 .5 0 .6.2l.1.5.2.6.2.5.4 1.8.3.6.2.5v.3c.2.1.2.3.3.5l.2.6.2.5.3.6.2.4.2.5.1.3.2.6.2.6.2.5.1.3.2.5.2.5.2.6.3.5.1.2.3.5.2.6v.3l.3.5.2.5.4.4.4.3c.2 0 .3.2.5.3h.7a151.1 151.1 0 009.4-.1l.6-.1.4-.3.4-.4.2-.5.1-.6v-.7l-.1-.3-.2-.6a3535684703850.3 3535684703850.3 0 00-2.4-3.6c0-.2-.2-.3-.3-.5l-.1-.2c0-.2-.2-.4-.3-.5l-.8-1c0-.2-.2-.4-.3-.5 0-.2-.2-.4-.3-.5l-.3-.4-.3-.5-.1-.2c0-.2-.2-.4-.3-.5l-.3-.4-.3-.5-.1-.2-.3-.5-.7-.8-.2-.5-.5-.7-.1-.5h1.4a2.8 2.8 0 001.3-.4c.2 0 .4 0 .5-.2l.3-.4.1-.6v-2.1c0-.3.2-.5.3-.6h1.7a5 5 0 001.7 0h.3c.2 0 .4-.2.5-.3l.2-.1.4-.5v-.6c.1-.2.2-.8.2-1.8v-.7l.1-2.9a21 21 0 00-.5-7.2l-.1-.7v-.3l-.3-.5-.2-.5a3 3 0 00-.4-.4l-.2-.2-.5-.2h-.7a2 2 0 00-.6.1l-.3.1h-1.9a1 1 0 01-.6-.1 7.2 7.2 0 01-.4-1.1v-.7l-.1-.7-.2-.6v-.7l-.3-.5-.1-.2-.3-.6-.2-.1a3 3 0 00-.3-.5 1 1 0 00-.5-.2l-.5-.2h-.3l-.7-.2h-.7a5 5 0 00-1-.1 5 5 0 00-1 0l-.8-.2h-1a8 8 0 01-1.5.1l-1.8.1a5 5 0 01-1 0 62.2 62.2 0 01-12.7-.4l-.1.1h-1.4l-.7.1-.6.2h-.6l-.4.4-.3.1a3 3 0 00-.4.4l-.3.4a5.2 5.2 0 00-.2 1.3l-.1 1.4-.1 1.1v1l-.1 1.4-.1 1.4-.1.7v2.2l-.1 1.8-.1 1.8-.1 2.1a4 4 0 00-.1 1.5l-.1 1-.1 1v1.5l-.1 2.5v.7l-.1 3.4v8.4l-.1.7v.6a14.7 14.7 0 00-.3 1.3 6 6 0 00-.2 1l.4.6c0 .2 0 .4.2.5l.5.6.4.4a7.9 7.9 0 001.1.7h1c.3.1 1.4.2 3.4.2zm6.2-24.2h-1.9l-.3-.1-.5-.2-.1-.7v-2.6l-.1-6.6h.3l.6-.1h1l.7-.2h.7l.6-.1h.8l1-.2h1l1.1-.1h1.4c.2-.1 1.2-.2 3-.2h4a5 5 0 002-.1h.6l.6.1.3.6.1.6a8 8 0 010 2.7v.2l-.1.5v5l-.1.7c0 .3-.2.4-.4.5a16 16 0 01-3.2.1 8 8 0 01-1.4.1h-2.1l-9.6.1z"/>
    <path fill="#FA6400" d="M655 50.5l.7-.1.7-.1.5-.6c.2-.1.3-.3.4-.6a9.4 9.4 0 000-2.2v-2.6l.7-.2h.8l1.8-.1.6-.5.5-.5.6-.5.6-.4.1-.7.1-21.4v-.7a9 9 0 00-.7-1.4l-.4-.7-.5-.3h-.7a47.3 47.3 0 00-3.4-.2 14.7 14.7 0 01-.4-2.2l-.1-.7-.1-.3a3 3 0 00-.4-.7c0-.2-.2-.4-.4-.6a4 4 0 00-.6-.4l-.8-.2h-.7l-.8.1h-3.7l-.8.1H646l-.8.1-.7.1H637l-.8.1h-3l-.6.1a5 5 0 01-.9.1H630l-.7.1h-.8l-.7.3a9 9 0 00-.7.3l-.7.2a9 9 0 01-.7.3 1 1 0 00-.5.4v2.7l-.7.2h-.8a33.8 33.8 0 01-3 .1l-.4.6a10.2 10.2 0 00-.8 1.3v23.7c.1.3.3.5.5.6l.5.5.7.3h3.3c.2 0 .4.2.4.4v1.2l.1.7v.7l.1.8.3.7.3.7.5.6.7.2.7.1h3l.8-.1h1.5l.7-.1h6l.7.1.7.1.8.2h.7l.8.1.7.1h11zm-5.8-11.6h-4.5l-6-.1h-.7l-1.9-.1h-1.5l-3-.2V38l-.2-10.1.1-3.2.1-.7v-1.8c.2-.2.5-.2.7-.3h.8l3-.1h.7l5.6-.1h6.8c.2 0 .3.2.3.4l.1.7.1 9.4v6.3c0 .2-.2.3-.5.4z"/>
  </g>
</svg>